<svg width="29" height="20" viewBox="0 0 29 20" fill="none" xmlns="http://www.w3.org/2000/svg">
<circle cx="8.44818" cy="8.07568" r="2" fill="black" stroke="black"/>
<path d="M1.75446 10.8289C1.75446 10.8289 1.54268 5.98198 6.16129 5.52762C10.78 5.07325 11.3323 9.51816 11.3323 9.51816" stroke="black"/>
<circle cx="25.0437" cy="8.32812" r="2" fill="black" stroke="black"/>
<path d="M17.8008 10.6199C17.8008 10.6199 17.5912 5.77286 22.3397 5.31066C27.0882 4.84845 27.6484 9.29288 27.6484 9.29288" stroke="black"/>
<ellipse cx="0.470319" cy="0.807134" rx="0.470319" ry="0.807134" transform="matrix(0.570136 0.82155 -0.705133 0.709076 1.13828 14.5586)" fill="#020000"/>
<ellipse cx="0.446678" cy="0.848303" rx="0.446678" ry="0.848303" transform="matrix(0.776111 0.630597 -0.489086 0.872236 1.75381 15.2334)" fill="#020000"/>
<ellipse cx="22.0001" cy="1" rx="1" ry="2" transform="rotate(-90 22.0001 1)" fill="black"/>
<ellipse cx="6.00006" cy="1" rx="1" ry="2" transform="rotate(-90 6.00006 1)" fill="black"/>
<ellipse cx="0.427994" cy="0.878064" rx="0.427994" ry="0.878064" transform="matrix(0.924542 -0.381081 0.273601 0.961843 26 15.0269)" fill="#020000"/>
<ellipse cx="0.448095" cy="0.845951" rx="0.448095" ry="0.845951" transform="matrix(0.764516 -0.644605 0.502931 0.864327 26.7437 14.5767)" fill="#020000"/>
<path d="M16.0245 17.2309C16.0245 17.2309 15.8727 19.262 13.9925 19.2255C12.1122 19.1891 12.1073 17.3089 12.1073 17.3089" stroke="black"/>
</svg>
