<svg width="186" height="270" viewBox="0 0 186 270" fill="none" xmlns="http://www.w3.org/2000/svg">
<path d="M9.77669 33.88C9.77669 33.88 27.0013 114.474 116.973 93.9212C206.946 73.3686 165.059 -16.2658 100.059 48.7339" stroke="white" stroke-width="20"/>
<path d="M74.5593 72.7339C63.9879 83.4224 24.4761 121.187 20.1296 171.594C14.0796 241.757 73.2379 241.339 73.2379 241.339" stroke="white" stroke-width="20"/>
<circle cx="103.125" cy="252.14" r="16" transform="rotate(175.336 103.125 252.14)" fill="white" stroke="white"/>
<path d="M77.2343 69.4736C77.2343 69.4736 52.2342 129.473 101.966 163.047C129.016 181.309 176.254 174.78 168.115 143.85C155.87 97.3222 54.7052 143.461 59.838 185.266C65.5235 231.573 134.191 207.397 134.191 207.397" stroke="white" stroke-width="20"/>
</svg>
