<svg width="29" height="20" viewBox="0 0 29 20" fill="none" xmlns="http://www.w3.org/2000/svg">
<circle cx="8.44818" cy="8.07568" r="2" fill="white" stroke="white"/>
<path d="M1.75446 10.8289C1.75446 10.8289 1.54268 5.98198 6.16129 5.52762C10.78 5.07325 11.3323 9.51816 11.3323 9.51816" stroke="white"/>
<circle cx="25.0437" cy="8.32812" r="2" fill="white" stroke="white"/>
<path d="M17.8008 10.6199C17.8008 10.6199 17.5912 5.77286 22.3397 5.31066C27.0882 4.84845 27.6484 9.29288 27.6484 9.29288" stroke="white"/>
<mask id="path-5-inside-1_4004_40" fill="white">
<ellipse cx="0.470319" cy="0.807134" rx="0.470319" ry="0.807134" transform="matrix(0.570136 0.82155 -0.705133 0.709076 1.13828 14.5586)"/>
</mask>
<ellipse cx="0.470319" cy="0.807134" rx="0.470319" ry="0.807134" transform="matrix(0.570136 0.82155 -0.705133 0.709076 1.13828 14.5586)" fill="#020000"/>
<path d="M1.10543 15.9037L0.535295 15.0821C0.480407 15.1373 0.453526 15.1358 0.486855 15.1284C0.505262 15.1243 0.565685 15.1138 0.652983 15.1386C0.746624 15.1652 0.87168 15.2341 0.973281 15.3805L0.268149 16.0896L-0.436984 16.7987C-0.0756638 17.3193 0.451347 17.331 0.76205 17.262C1.09842 17.1873 1.41613 16.9861 1.67557 16.7252L1.10543 15.9037ZM0.268149 16.0896L0.973281 15.3805C1.07488 15.527 1.10901 15.6874 1.11406 15.803C1.11877 15.9108 1.09947 15.9805 1.09285 16.0016C1.08087 16.0398 1.08439 16.0077 1.13928 15.9525L0.569139 15.1309L-0.000997474 14.3094C-0.260435 14.5703 -0.481461 14.9108 -0.602379 15.2959C-0.714072 15.6517 -0.798304 16.278 -0.436984 16.7987L0.268149 16.0896ZM0.569139 15.1309L1.13928 15.9525C1.19416 15.8973 1.22104 15.8988 1.18771 15.9062C1.16931 15.9103 1.10889 15.9208 1.02159 15.896C0.927946 15.8694 0.80289 15.8005 0.701289 15.6541L1.40642 14.945L2.11155 14.2359C1.75023 13.7153 1.22322 13.7036 0.91252 13.7726C0.576154 13.8473 0.25844 14.0485 -0.000997474 14.3094L0.569139 15.1309ZM1.40642 14.945L0.701289 15.6541C0.599688 15.5077 0.565555 15.3472 0.560509 15.2316C0.555805 15.1238 0.5751 15.0541 0.581717 15.033C0.593698 14.9948 0.590183 15.0269 0.535295 15.0821L1.10543 15.9037L1.67557 16.7252C1.93501 16.4644 2.15603 16.1238 2.27695 15.7387C2.38864 15.3829 2.47287 14.7566 2.11155 14.2359L1.40642 14.945Z" fill="white" mask="url(#path-5-inside-1_4004_40)"/>
<mask id="path-7-inside-2_4004_40" fill="white">
<ellipse cx="0.446678" cy="0.848303" rx="0.446678" ry="0.848303" transform="matrix(0.776111 0.630597 -0.489086 0.872236 1.75381 15.2334)"/>
</mask>
<ellipse cx="0.446678" cy="0.848303" rx="0.446678" ry="0.848303" transform="matrix(0.776111 0.630597 -0.489086 0.872236 1.75381 15.2334)" fill="#020000"/>
<path d="M2.03227 16.5367L1.25615 15.9061C1.20468 15.9979 1.16323 16.0222 1.1785 16.013C1.18689 16.008 1.23951 15.9771 1.33351 15.9715C1.43511 15.9654 1.5971 15.9905 1.75979 16.1227L1.2707 16.9949L0.781615 17.8671C1.30867 18.2954 1.84667 18.0919 2.09621 17.9417C2.38711 17.7667 2.63071 17.4841 2.80838 17.1673L2.03227 16.5367ZM1.2707 16.9949L1.75979 16.1227C1.92248 16.2549 2.0024 16.4263 2.0357 16.542C2.06652 16.6491 2.06244 16.7193 2.06168 16.7306C2.06032 16.7511 2.06356 16.6957 2.11503 16.6039L1.33892 15.9733L0.562811 15.3427C0.385149 15.6596 0.258547 16.0372 0.232488 16.4274C0.210134 16.7622 0.254563 17.4389 0.781615 17.8671L1.2707 16.9949ZM1.33892 15.9733L2.11503 16.6039C2.16651 16.5121 2.20795 16.4878 2.19269 16.497C2.18429 16.502 2.13167 16.5329 2.03768 16.5385C1.93608 16.5446 1.77409 16.5195 1.6114 16.3873L2.10049 15.5151L2.58957 14.6428C2.06252 14.2146 1.52452 14.4181 1.27498 14.5683C0.98408 14.7433 0.740473 15.0259 0.562811 15.3427L1.33892 15.9733ZM2.10049 15.5151L1.6114 16.3873C1.44871 16.2551 1.36879 16.0837 1.33548 15.968C1.30467 15.8609 1.30875 15.7906 1.3095 15.7794C1.31087 15.7589 1.30763 15.8143 1.25615 15.9061L2.03227 16.5367L2.80838 17.1673C2.98604 16.8504 3.11264 16.4728 3.1387 16.0826C3.16105 15.7478 3.11662 15.0711 2.58957 14.6428L2.10049 15.5151Z" fill="white" mask="url(#path-7-inside-2_4004_40)"/>
<path d="M20.5001 0.99707C20.5004 0.995602 20.5012 0.992705 20.503 0.988281C20.507 0.978408 20.5173 0.95939 20.5391 0.933594C20.5848 0.8797 20.6704 0.809828 20.8096 0.740234C21.0885 0.600823 21.5086 0.5 22.0001 0.5C22.4915 0.5 22.9116 0.600823 23.1905 0.740234C23.3297 0.809828 23.4154 0.8797 23.461 0.933594C23.4828 0.95939 23.4931 0.978408 23.4971 0.988281C23.4989 0.992705 23.4998 0.995602 23.5001 0.99707V1.00293C23.4998 1.0044 23.4989 1.0073 23.4971 1.01172C23.4931 1.02159 23.4828 1.04061 23.461 1.06641C23.4154 1.1203 23.3297 1.19017 23.1905 1.25977C22.9116 1.39918 22.4915 1.5 22.0001 1.5C21.5086 1.5 21.0885 1.39918 20.8096 1.25977C20.6704 1.19017 20.5848 1.1203 20.5391 1.06641C20.5173 1.04061 20.507 1.02159 20.503 1.01172C20.5012 1.0073 20.5004 1.0044 20.5001 1.00293V0.99707Z" fill="black" stroke="white"/>
<path d="M4.50006 0.99707C4.50037 0.995602 4.50121 0.992705 4.50299 0.988281C4.50703 0.978408 4.5173 0.95939 4.53912 0.933594C4.58475 0.8797 4.67044 0.809828 4.80963 0.740234C5.0885 0.600823 5.50862 0.5 6.00006 0.5C6.4915 0.5 6.91162 0.600823 7.19049 0.740234C7.32968 0.809828 7.41537 0.8797 7.461 0.933594C7.48282 0.95939 7.49309 0.978408 7.49713 0.988281C7.49891 0.992705 7.49975 0.995602 7.50006 0.99707V1.00293C7.49975 1.0044 7.49891 1.0073 7.49713 1.01172C7.49309 1.02159 7.48282 1.04061 7.461 1.06641C7.41537 1.1203 7.32968 1.19017 7.19049 1.25977C6.91162 1.39918 6.4915 1.5 6.00006 1.5C5.50862 1.5 5.0885 1.39918 4.80963 1.25977C4.67044 1.19017 4.58475 1.1203 4.53912 1.06641C4.5173 1.04061 4.50703 1.02159 4.50299 1.01172C4.50121 1.0073 4.50037 1.0044 4.50006 1.00293V0.99707Z" fill="black" stroke="white"/>
<mask id="path-11-inside-3_4004_40" fill="white">
<ellipse cx="0.427994" cy="0.878064" rx="0.427994" ry="0.878064" transform="matrix(0.924542 -0.381081 0.273601 0.961843 26 15.0269)"/>
</mask>
<ellipse cx="0.427994" cy="0.878064" rx="0.427994" ry="0.878064" transform="matrix(0.924542 -0.381081 0.273601 0.961843 26 15.0269)" fill="#020000"/>
<path d="M27.0317 15.5452L26.1071 15.9263C26.1412 16.0459 26.1338 16.117 26.1347 16.1113C26.1351 16.1085 26.1446 16.0422 26.1988 15.9463C26.2573 15.8427 26.3847 15.6809 26.6026 15.591L26.8762 16.5529L27.1498 17.5147C27.8103 17.2425 27.9914 16.5622 28.0366 16.2691C28.0937 15.8987 28.0549 15.511 27.9562 15.1641L27.0317 15.5452ZM26.8762 16.5529L26.6026 15.591C26.8205 15.5012 27.0036 15.5351 27.1026 15.5738C27.1943 15.6095 27.2355 15.6549 27.2372 15.6569C27.2408 15.6607 27.1988 15.61 27.1648 15.4903L26.2403 15.8714L25.3157 16.2525C25.4144 16.5993 25.5811 16.9343 25.8148 17.1848C25.9999 17.3831 26.4893 17.787 27.1498 17.5147L26.8762 16.5529ZM26.2403 15.8714L27.1648 15.4903C27.1308 15.3707 27.1381 15.2996 27.1372 15.3053C27.1368 15.3081 27.1274 15.3744 27.0732 15.4703C27.0146 15.5739 26.8873 15.7358 26.6693 15.8256L26.3957 14.8638L26.1221 13.9019C25.4616 14.1742 25.2806 14.8544 25.2353 15.1476C25.1782 15.518 25.2171 15.9057 25.3157 16.2525L26.2403 15.8714ZM26.3957 14.8638L26.6693 15.8256C26.4514 15.9154 26.2684 15.8815 26.1693 15.8429C26.0777 15.8071 26.0365 15.7617 26.0347 15.7598C26.0311 15.7559 26.0731 15.8067 26.1071 15.9263L27.0317 15.5452L27.9562 15.1641C27.8576 14.8173 27.6908 14.4823 27.4571 14.2318C27.2721 14.0335 26.7827 13.6297 26.1221 13.9019L26.3957 14.8638Z" fill="white" mask="url(#path-11-inside-3_4004_40)"/>
<mask id="path-13-inside-4_4004_40" fill="white">
<ellipse cx="0.448095" cy="0.845951" rx="0.448095" ry="0.845951" transform="matrix(0.764516 -0.644605 0.502931 0.864327 26.7437 14.5767)"/>
</mask>
<ellipse cx="0.448095" cy="0.845951" rx="0.448095" ry="0.845951" transform="matrix(0.764516 -0.644605 0.502931 0.864327 26.7437 14.5767)" fill="#020000"/>
<path d="M27.8543 14.7301L27.0898 15.3748C27.1419 15.4644 27.1455 15.5184 27.1438 15.4968C27.1428 15.4849 27.1378 15.4145 27.167 15.3071C27.1986 15.191 27.2755 15.0197 27.4342 14.8858L27.9372 15.7502L28.4401 16.6145C28.9572 16.1785 28.9932 15.5037 28.9658 15.1667C28.934 14.7759 28.8016 14.3997 28.6188 14.0855L27.8543 14.7301ZM27.9372 15.7502L27.4342 14.8858C27.593 14.752 27.753 14.7235 27.8544 14.7275C27.9483 14.7312 28.0015 14.7609 28.0105 14.7661C28.0268 14.7754 27.9858 14.7529 27.9337 14.6632L27.1691 15.3078L26.4046 15.9524C26.5874 16.2666 26.8359 16.545 27.1301 16.7145C27.3839 16.8606 27.923 17.0505 28.4401 16.6145L27.9372 15.7502ZM27.1691 15.3078L27.9337 14.6632C27.8815 14.5736 27.8779 14.5196 27.8796 14.5412C27.8806 14.5531 27.8856 14.6235 27.8564 14.7309C27.8248 14.847 27.748 15.0183 27.5892 15.1521L27.0863 14.2878L26.5833 13.4235C26.0662 13.8595 26.0302 14.5343 26.0576 14.8713C26.0894 15.262 26.2218 15.6383 26.4046 15.9524L27.1691 15.3078ZM27.0863 14.2878L27.5892 15.1521C27.4304 15.286 27.2704 15.3144 27.169 15.3105C27.0752 15.3068 27.0219 15.2771 27.0129 15.2719C26.9967 15.2626 27.0376 15.2851 27.0898 15.3748L27.8543 14.7301L28.6188 14.0855C28.436 13.7714 28.1875 13.493 27.8933 13.3235C27.6396 13.1774 27.1004 12.9875 26.5833 13.4235L27.0863 14.2878Z" fill="white" mask="url(#path-13-inside-4_4004_40)"/>
<path d="M16.0245 17.2309C16.0245 17.2309 15.8727 19.262 13.9925 19.2255C12.1122 19.1891 12.1073 17.3089 12.1073 17.3089" stroke="white"/>
</svg>
