<svg width="79" height="77" viewBox="0 0 79 77" fill="none" xmlns="http://www.w3.org/2000/svg">
<path d="M38.0001 0.969727C52.7362 0.969727 64.5001 10.6864 64.5001 22.4697C64.5001 34.253 52.7362 43.9697 38.0001 43.9697C23.264 43.9697 11.5001 34.253 11.5001 22.4697C11.5001 10.6864 23.264 0.969727 38.0001 0.969727Z" fill="#3502E4" stroke="#3502E4"/>
<path d="M62.1461 13.8239C62.1517 13.8302 62.1621 13.8413 62.1765 13.8582C62.2118 13.8997 62.2738 13.9743 62.3718 14.0997C62.5688 14.3518 62.9083 14.8033 63.4683 15.5896C64.5883 17.1621 66.5844 20.0655 70.0825 25.3809C72.2022 28.602 73.8106 33.1665 74.8918 36.9596C75.4305 38.8494 75.8356 40.5354 76.1053 41.7487C76.2401 42.3551 76.3403 42.8433 76.4075 43.1791C76.4245 43.2639 76.4387 43.3396 76.4514 43.4044L66.0671 51.694L56.8164 9.03811L62.1461 13.8239Z" fill="#3502E4" stroke="#3502E4"/>
<path d="M61.8676 75.8599C61.8575 75.8554 61.837 75.8444 61.809 75.8013C61.7404 75.6953 61.6629 75.4471 61.6694 74.9565C61.6757 74.481 61.7592 73.8412 61.9428 73.0151C62.1916 71.8954 62.3044 70.9736 62.3159 70.2397C62.3271 69.5159 62.2404 68.9372 62.06 68.5278C61.8843 68.1293 61.5257 67.7316 60.9838 67.8218C60.5374 67.8962 60.2192 68.284 60.0131 68.6733C57.8407 72.7768 54.1079 74.8068 51.3286 75.1616C49.918 75.3416 48.8704 75.079 48.352 74.5903C48.1065 74.3589 47.9625 74.0632 47.9457 73.6841C47.9285 73.2925 48.0474 72.7814 48.394 72.146C49.7431 69.6722 50.2103 66.673 50.1752 63.604C50.1401 60.5307 49.6006 57.3495 48.9028 54.4829C48.2044 51.6143 47.3433 49.0466 46.6577 47.1968C46.3147 46.2716 46.0154 45.5246 45.8012 45.0083C45.7402 44.8613 45.6853 44.733 45.6391 44.6245C45.8468 44.5103 46.1325 44.3528 46.4887 44.1646C47.2842 43.7442 48.4264 43.1616 49.8071 42.5142C52.5711 41.218 56.2818 39.6679 60.0903 38.6362C63.9125 37.6009 67.7681 37.1066 70.852 37.8579C72.3842 38.2312 73.7127 38.9089 74.7592 39.9702C75.8049 41.0308 76.5962 42.5026 77.0102 44.5083C77.628 47.5022 76.8055 51.5841 75.1957 55.8794C73.5937 60.1541 71.244 64.5576 68.9047 68.1548C67.7357 69.9524 66.5733 71.5427 65.5131 72.811C64.4463 74.0873 63.5048 75.0112 62.7807 75.5005C62.4132 75.7488 62.1512 75.8506 61.9887 75.8687C61.9154 75.8768 61.8805 75.8655 61.8676 75.8599Z" fill="#3502E4" stroke="#3502E4"/>
<path d="M25.3718 4.2123C24.6114 4.40243 23.5424 4.7229 22.3205 5.24232C19.8748 6.28191 16.8291 8.11234 14.3958 11.276C12.7473 13.4193 12.0547 14.8208 11.3641 16.5471C10.6672 18.2891 9.95872 20.4052 8.3072 23.8923C6.63713 27.4185 5.01957 32.018 3.81723 35.7491C3.21695 37.6119 2.72182 39.2536 2.37661 40.429C2.20408 41.0165 2.0687 41.4874 1.97692 41.8112C1.95795 41.8782 1.94171 41.9391 1.92648 41.9931L12.3353 50.303L25.7917 4.1145C25.6652 4.1427 25.5246 4.1741 25.3718 4.2123Z" fill="#3502E4" stroke="#3502E4"/>
<path d="M16.488 73.4302C16.4981 73.4257 16.5186 73.4147 16.5466 73.3716C16.6152 73.2656 16.6927 73.0174 16.6862 72.5269C16.6799 72.0513 16.5964 71.4115 16.4128 70.5854C16.164 69.4657 16.0512 68.5439 16.0397 67.8101C16.0285 67.0862 16.1152 66.5075 16.2956 66.0981C16.4713 65.6996 16.8299 65.3019 17.3718 65.3921C17.8182 65.4666 18.1364 65.8543 18.3425 66.2437C20.515 70.3471 24.2477 72.3771 27.0271 72.7319C28.4376 72.9119 29.4852 72.6493 30.0036 72.1606C30.2491 71.9292 30.3931 71.6335 30.4099 71.2544C30.4271 70.8628 30.3082 70.3517 29.9616 69.7163C28.6125 67.2426 28.1453 64.2433 28.1804 61.1743C28.2155 58.101 28.755 54.9199 29.4528 52.0532C30.1512 49.1846 31.0123 46.6169 31.698 44.7671C32.0409 43.8419 32.3402 43.0949 32.5544 42.5786C32.6154 42.4316 32.6703 42.3033 32.7165 42.1948C32.5089 42.0806 32.2231 41.9231 31.8669 41.7349C31.0714 41.3145 29.9292 40.7319 28.5485 40.0845C25.7845 38.7883 22.0738 37.2382 18.2653 36.2065C14.4431 35.1712 10.5875 34.6769 7.50362 35.4282C5.97145 35.8015 4.64292 36.4793 3.59639 37.5405C2.55066 38.6011 1.75937 40.0729 1.34541 42.0786C0.72759 45.0725 1.55006 49.1544 3.15987 53.4497C4.76195 57.7244 7.11163 62.1279 9.45088 65.7251C10.6199 67.5227 11.7823 69.1131 12.8425 70.3813C13.9093 71.6576 14.8508 72.5815 15.5749 73.0708C15.9424 73.3191 16.2044 73.4209 16.3669 73.439C16.4403 73.4471 16.4751 73.4358 16.488 73.4302Z" fill="#3502E4" stroke="#3502E4"/>
<path d="M38.049 13.9697C51.2047 13.9697 62.049 23.9475 62.049 36.4697C62.049 48.9919 51.2047 58.9697 38.049 58.9697C24.8934 58.9697 14.049 48.9919 14.049 36.4697C14.049 23.9475 24.8934 13.9697 38.049 13.9697Z" fill="white" stroke="#3502E4" stroke-width="3"/>
<circle cx="31.5" cy="37.4995" r="2" fill="#3502E4" stroke="#3502E4"/>
<mask id="path-8-inside-1_4004_26" fill="white">
<ellipse cx="0.470319" cy="0.807134" rx="0.470319" ry="0.807134" transform="matrix(0.570136 0.82155 -0.705133 0.709076 24.6875 44.0205)"/>
</mask>
<ellipse cx="0.470319" cy="0.807134" rx="0.470319" ry="0.807134" transform="matrix(0.570136 0.82155 -0.705133 0.709076 24.6875 44.0205)" fill="#020000"/>
<path d="M24.6547 45.3656L24.0845 44.5441C24.0296 44.5993 24.0028 44.5977 24.0361 44.5903C24.0545 44.5862 24.1149 44.5758 24.2022 44.6005C24.2959 44.6271 24.4209 44.6961 24.5225 44.8425L23.8174 45.5515L23.1123 46.2606C23.4736 46.7813 24.0006 46.7929 24.3113 46.724C24.6477 46.6493 24.9654 46.448 25.2248 46.1872L24.6547 45.3656ZM23.8174 45.5515L24.5225 44.8425C24.6241 44.9889 24.6582 45.1493 24.6633 45.2649C24.668 45.3727 24.6487 45.4425 24.6421 45.4635C24.6301 45.5017 24.6336 45.4696 24.6885 45.4144L24.1184 44.5928L23.5482 43.7713C23.2888 44.0322 23.0678 44.3727 22.9469 44.7579C22.8352 45.1136 22.7509 45.74 23.1123 46.2606L23.8174 45.5515ZM24.1184 44.5928L24.6885 45.4144C24.7434 45.3592 24.7703 45.3607 24.7369 45.3681C24.7185 45.3722 24.6581 45.3827 24.5708 45.3579C24.4772 45.3314 24.3521 45.2624 24.2505 45.116L24.9557 44.4069L25.6608 43.6978C25.2995 43.1772 24.7725 43.1655 24.4618 43.2345C24.1254 43.3092 23.8077 43.5104 23.5482 43.7713L24.1184 44.5928ZM24.9557 44.4069L24.2505 45.116C24.1489 44.9696 24.1148 44.8092 24.1097 44.6935C24.105 44.5857 24.1243 44.516 24.131 44.4949C24.1429 44.4567 24.1394 44.4889 24.0845 44.5441L24.6547 45.3656L25.2248 46.1872C25.4842 45.9263 25.7053 45.5857 25.8262 45.2006C25.9379 44.8448 26.0221 44.2185 25.6608 43.6978L24.9557 44.4069Z" fill="#3502E4" mask="url(#path-8-inside-1_4004_26)"/>
<mask id="path-10-inside-2_4004_26" fill="white">
<ellipse cx="0.446678" cy="0.848303" rx="0.446678" ry="0.848303" transform="matrix(0.776111 0.630597 -0.489086 0.872236 25.303 44.6953)"/>
</mask>
<ellipse cx="0.446678" cy="0.848303" rx="0.446678" ry="0.848303" transform="matrix(0.776111 0.630597 -0.489086 0.872236 25.303 44.6953)" fill="#020000"/>
<path d="M25.5815 45.9986L24.8054 45.368C24.7539 45.4598 24.7125 45.4841 24.7277 45.4749C24.7361 45.4699 24.7887 45.439 24.8827 45.4334C24.9843 45.4273 25.1463 45.4524 25.309 45.5846L24.8199 46.4568L24.3308 47.3291C24.8579 47.7573 25.3959 47.5538 25.6454 47.4036C25.9363 47.2286 26.1799 46.946 26.3576 46.6292L25.5815 45.9986ZM24.8199 46.4568L25.309 45.5846C25.4717 45.7168 25.5516 45.8882 25.5849 46.0039C25.6158 46.111 25.6117 46.1813 25.6109 46.1925C25.6096 46.213 25.6128 46.1576 25.6643 46.0658L24.8882 45.4352L24.112 44.8046C23.9344 45.1215 23.8078 45.4991 23.7817 45.8893C23.7594 46.2241 23.8038 46.9008 24.3308 47.3291L24.8199 46.4568ZM24.8882 45.4352L25.6643 46.0658C25.7157 45.974 25.7572 45.9497 25.7419 45.9589C25.7335 45.9639 25.6809 45.9948 25.5869 46.0004C25.4853 46.0065 25.3233 45.9814 25.1606 45.8492L25.6497 44.977L26.1388 44.1048C25.6118 43.6765 25.0738 43.88 24.8242 44.0302C24.5333 44.2052 24.2897 44.4878 24.112 44.8046L24.8882 45.4352ZM25.6497 44.977L25.1606 45.8492C24.9979 45.717 24.918 45.5456 24.8847 45.4299C24.8539 45.3228 24.858 45.2526 24.8587 45.2413C24.8601 45.2208 24.8569 45.2762 24.8054 45.368L25.5815 45.9986L26.3576 46.6292C26.5353 46.3123 26.6619 45.9347 26.6879 45.5445C26.7103 45.2097 26.6659 44.533 26.1388 44.1048L25.6497 44.977Z" fill="#3502E4" mask="url(#path-10-inside-2_4004_26)"/>
<path d="M44.049 30.4668C44.0493 30.4653 44.0502 30.4624 44.052 30.458C44.056 30.4481 44.0663 30.4291 44.0881 30.4033C44.1337 30.3494 44.2194 30.2796 44.3586 30.21C44.6375 30.0705 45.0576 29.9697 45.549 29.9697C46.0405 29.9697 46.4606 30.0705 46.7395 30.21C46.8787 30.2796 46.9643 30.3494 47.01 30.4033C47.0318 30.4291 47.0421 30.4481 47.0461 30.458C47.0479 30.4624 47.0487 30.4653 47.049 30.4668V30.4727C47.0487 30.4741 47.0479 30.477 47.0461 30.4814C47.0421 30.4913 47.0318 30.5103 47.01 30.5361C46.9643 30.59 46.8787 30.6599 46.7395 30.7295C46.4606 30.8689 46.0405 30.9697 45.549 30.9697C45.0576 30.9697 44.6375 30.8689 44.3586 30.7295C44.2194 30.6599 44.1337 30.59 44.0881 30.5361C44.0663 30.5103 44.056 30.4913 44.052 30.4814C44.0502 30.477 44.0493 30.4741 44.049 30.4727V30.4668Z" fill="black" stroke="#3502E4"/>
<path d="M28.049 30.4668C28.0493 30.4653 28.0502 30.4624 28.052 30.458C28.056 30.4481 28.0663 30.4291 28.0881 30.4033C28.1337 30.3494 28.2194 30.2796 28.3586 30.21C28.6375 30.0705 29.0576 29.9697 29.549 29.9697C30.0405 29.9697 30.4606 30.0705 30.7395 30.21C30.8787 30.2796 30.9643 30.3494 31.01 30.4033C31.0318 30.4291 31.0421 30.4481 31.0461 30.458C31.0479 30.4624 31.0487 30.4653 31.049 30.4668V30.4727C31.0487 30.4741 31.0479 30.477 31.0461 30.4814C31.0421 30.4913 31.0318 30.5103 31.01 30.5361C30.9643 30.59 30.8787 30.6599 30.7395 30.7295C30.4606 30.8689 30.0405 30.9697 29.549 30.9697C29.0576 30.9697 28.6375 30.8689 28.3586 30.7295C28.2194 30.6599 28.1337 30.59 28.0881 30.5361C28.0663 30.5103 28.056 30.4913 28.052 30.4814C28.0502 30.477 28.0493 30.4741 28.049 30.4727V30.4668Z" fill="black" stroke="#3502E4"/>
<mask id="path-14-inside-3_4004_26" fill="white">
<ellipse cx="0.427994" cy="0.878064" rx="0.427994" ry="0.878064" transform="matrix(0.924542 -0.381081 0.273601 0.961843 49.5492 44.4888)"/>
</mask>
<ellipse cx="0.427994" cy="0.878064" rx="0.427994" ry="0.878064" transform="matrix(0.924542 -0.381081 0.273601 0.961843 49.5492 44.4888)" fill="#020000"/>
<path d="M50.5809 45.0071L49.6563 45.3882C49.6903 45.5078 49.683 45.5789 49.6839 45.5732C49.6843 45.5704 49.6938 45.5041 49.748 45.4082C49.8065 45.3046 49.9339 45.1428 50.1518 45.0529L50.4254 46.0148L50.699 46.9766C51.3595 46.7044 51.5406 46.0241 51.5858 45.731C51.6429 45.3606 51.6041 44.9729 51.5054 44.626L50.5809 45.0071ZM50.4254 46.0148L50.1518 45.0529C50.3697 44.9631 50.5527 44.997 50.6518 45.0357C50.7435 45.0715 50.7847 45.1169 50.7864 45.1188C50.79 45.1226 50.748 45.0719 50.714 44.9522L49.7895 45.3333L48.8649 45.7144C48.9636 46.0612 49.1303 46.3962 49.364 46.6467C49.5491 46.845 50.0385 47.2489 50.699 46.9766L50.4254 46.0148ZM49.7895 45.3333L50.714 44.9522C50.68 44.8326 50.6873 44.7615 50.6864 44.7672C50.686 44.7701 50.6766 44.8363 50.6224 44.9322C50.5638 45.0359 50.4365 45.1977 50.2185 45.2875L49.9449 44.3257L49.6713 43.3638C49.0108 43.6361 48.8298 44.3163 48.7845 44.6095C48.7274 44.9799 48.7663 45.3676 48.8649 45.7144L49.7895 45.3333ZM49.9449 44.3257L50.2185 45.2875C50.0006 45.3773 49.8176 45.3434 49.7185 45.3048C49.6269 45.269 49.5857 45.2236 49.5839 45.2217C49.5803 45.2178 49.6223 45.2686 49.6563 45.3882L50.5809 45.0071L51.5054 44.626C51.4067 44.2792 51.24 43.9442 51.0063 43.6937C50.8213 43.4955 50.3319 43.0916 49.6713 43.3638L49.9449 44.3257Z" fill="#3502E4" mask="url(#path-14-inside-3_4004_26)"/>
<mask id="path-16-inside-4_4004_26" fill="white">
<ellipse cx="0.448095" cy="0.845951" rx="0.448095" ry="0.845951" transform="matrix(0.764516 -0.644605 0.502931 0.864327 50.2929 44.0386)"/>
</mask>
<ellipse cx="0.448095" cy="0.845951" rx="0.448095" ry="0.845951" transform="matrix(0.764516 -0.644605 0.502931 0.864327 50.2929 44.0386)" fill="#020000"/>
<path d="M51.4035 44.1921L50.639 44.8367C50.6911 44.9263 50.6947 44.9803 50.693 44.9587C50.692 44.9468 50.687 44.8764 50.7162 44.769C50.7478 44.6529 50.8246 44.4816 50.9834 44.3478L51.4864 45.2121L51.9893 46.0764C52.5064 45.6404 52.5424 44.9656 52.515 44.6286C52.4832 44.2379 52.3508 43.8616 52.168 43.5475L51.4035 44.1921ZM51.4864 45.2121L50.9834 44.3478C51.1422 44.2139 51.3022 44.1855 51.4036 44.1894C51.4975 44.1931 51.5507 44.2228 51.5597 44.228C51.576 44.2373 51.535 44.2148 51.4828 44.1251L50.7183 44.7698L49.9538 45.4144C50.1366 45.7285 50.3851 46.0069 50.6793 46.1764C50.9331 46.3225 51.4722 46.5124 51.9893 46.0764L51.4864 45.2121ZM50.7183 44.7698L51.4828 44.1251C51.4307 44.0355 51.4271 43.9815 51.4288 44.0031C51.4298 44.015 51.4348 44.0854 51.4056 44.1928C51.374 44.3089 51.2972 44.4802 51.1384 44.6141L50.6355 43.7497L50.1325 42.8854C49.6154 43.3214 49.5794 43.9962 49.6068 44.3332C49.6386 44.724 49.771 45.1002 49.9538 45.4144L50.7183 44.7698ZM50.6355 43.7497L51.1384 44.6141C50.9796 44.7479 50.8196 44.7764 50.7182 44.7724C50.6243 44.7687 50.5711 44.739 50.5621 44.7338C50.5459 44.7245 50.5868 44.747 50.639 44.8367L51.4035 44.1921L52.168 43.5475C51.9852 43.2333 51.7367 42.9549 51.4425 42.7854C51.1887 42.6393 50.6496 42.4494 50.1325 42.8854L50.6355 43.7497Z" fill="#3502E4" mask="url(#path-16-inside-4_4004_26)"/>
<path d="M24.8063 40.2527C24.8063 40.2527 24.5945 35.4058 29.2131 34.9515C33.8318 34.4971 34.3841 38.942 34.3841 38.942" stroke="#3502E4"/>
<circle cx="48.0956" cy="37.752" r="2" fill="#3502E4" stroke="#3502E4"/>
<path d="M40.8526 40.0437C40.8526 40.0437 40.6431 35.1967 45.3915 34.7345C50.14 34.2723 50.7002 38.7167 50.7002 38.7167" stroke="#3502E4"/>
<path d="M39.5737 46.6928C39.5737 46.6928 39.4219 48.7239 37.5417 48.6874C35.6614 48.651 35.6564 46.7708 35.6564 46.7708" stroke="#3502E4"/>
<path d="M57.4895 15.9697C57.5258 16.0443 57.57 16.1336 57.6184 16.2383C57.7816 16.5912 58.0071 17.111 58.2522 17.7695C58.7426 19.0875 59.31 20.9575 59.6164 23.1631C60.2289 27.5726 59.7982 33.3003 55.6535 38.6641C55.4032 38.988 55.1931 39.205 55.0197 39.3408C54.845 39.4777 54.7351 39.51 54.6809 39.5156C54.6322 39.5206 54.4861 39.5149 54.2404 39.0967C54.0067 38.6986 53.7843 38.0897 53.5393 37.3008C53.4185 36.9117 53.2952 36.4894 53.1643 36.04C53.0337 35.5919 52.8956 35.1173 52.7463 34.6299C52.1514 32.6884 51.3633 30.4844 50.0744 28.7002C48.7736 26.8996 46.9482 25.5098 44.3068 25.249C38.5459 24.6801 35.0444 22.178 32.9797 19.8398C31.944 18.6669 31.2651 17.5304 30.8469 16.6895C30.7104 16.415 30.6039 16.1712 30.5197 15.9697H57.4895Z" fill="#3502E4" stroke="#3502E4"/>
<path d="M14.6109 14.9487C14.6039 15.0698 14.595 15.2135 14.5865 15.3774C14.5567 15.9513 14.5206 16.777 14.4937 17.7827C14.4398 19.7959 14.4239 22.5268 14.5777 25.3999C14.7317 28.2761 15.0549 31.279 15.6714 33.8433C16.2938 36.4317 17.1929 38.4715 18.4273 39.5317C19.4736 40.4302 20.1587 40.8266 20.5777 40.9253C20.7699 40.9705 20.8544 40.9407 20.8882 40.9224C20.9245 40.9025 20.9887 40.8483 21.0513 40.687C21.1867 40.3381 21.2264 39.7276 21.1734 38.8618C21.1217 38.0177 20.9895 37.0137 20.8404 35.9233C20.5457 33.7691 20.1815 31.2754 20.3218 29.2563C20.3921 28.2455 20.5919 27.2985 21.0289 26.5552C21.4798 25.7882 22.1749 25.2573 23.1607 25.1001C26.9079 24.503 29.2298 21.8688 30.6314 19.3071C31.3301 18.0302 31.7902 16.7883 32.0748 15.8647C32.1858 15.5044 32.2676 15.1929 32.3287 14.9487H14.6109Z" fill="#3502E4" stroke="#3502E4"/>
<rect x="16.5001" y="9.96973" width="40" height="6" fill="#3502E4" stroke="#3502E4"/>
</svg>
