<svg xmlns="http://www.w3.org/2000/svg" xmlns:xlink="http://www.w3.org/1999/xlink" width="529" zoomAndPan="magnify" viewBox="0 0 396.75 396.749985" height="529" preserveAspectRatio="xMidYMid meet" version="1.0"><defs><clipPath id="53317917f2"><path d="M 8.5 8.839844 L 387.757812 8.839844 L 387.757812 388.097656 L 8.5 388.097656 Z M 8.5 8.839844 " clip-rule="nonzero"/></clipPath><clipPath id="7686c79f53"><path d="M 0.5 0.839844 L 379.757812 0.839844 L 379.757812 379.757812 L 0.5 379.757812 Z M 0.5 0.839844 " clip-rule="nonzero"/></clipPath><clipPath id="078ab50b3b"><rect x="0" width="380" y="0" height="381"/></clipPath></defs><g clip-path="url(#53317917f2)"><g transform="matrix(1, 0, 0, 1, 8, 8)"><g clip-path="url(#078ab50b3b)"><g clip-path="url(#7686c79f53)"><path fill="#f4ba40" d="M 116.417969 365.171875 C 93.816406 355.605469 73.519531 341.929688 56.089844 324.5 C 38.660156 307.070312 24.96875 286.773438 15.417969 264.171875 C 5.519531 240.777344 0.5 215.917969 0.5 190.300781 C 0.5 189.238281 1.367188 188.371094 2.425781 188.371094 L 151.996094 188.371094 C 139.84375 185.875 127.945312 182.183594 116.417969 177.308594 C 93.816406 167.742188 73.519531 154.066406 56.089844 136.636719 C 38.660156 119.207031 24.96875 98.90625 15.417969 76.304688 C 5.519531 52.914062 0.5 28.054688 0.5 2.433594 C 0.5 1.371094 1.367188 0.507812 2.425781 0.507812 L 378.171875 0.507812 C 379.230469 0.507812 380.097656 1.371094 380.097656 2.433594 C 380.097656 28.054688 375.078125 52.914062 365.179688 76.304688 C 355.613281 98.90625 341.9375 119.207031 324.507812 136.636719 C 307.078125 154.066406 286.78125 167.757812 264.179688 177.308594 C 252.640625 182.183594 240.753906 185.875 228.601562 188.371094 L 378.171875 188.371094 C 379.230469 188.371094 380.097656 189.238281 380.097656 190.300781 C 380.097656 215.917969 375.078125 240.777344 365.179688 264.171875 C 355.613281 286.773438 341.9375 307.070312 324.507812 324.5 C 307.078125 341.929688 286.78125 355.621094 264.179688 365.171875 C 240.785156 375.070312 215.925781 380.089844 190.304688 380.089844 C 164.6875 380.089844 139.8125 375.070312 116.417969 365.171875 Z M 116.417969 365.171875 " fill-opacity="1" fill-rule="nonzero"/></g></g></g></g></svg>