<svg xmlns="http://www.w3.org/2000/svg" xmlns:xlink="http://www.w3.org/1999/xlink" width="529" zoomAndPan="magnify" viewBox="0 0 396.75 396.749985" height="529" preserveAspectRatio="xMidYMid meet" version="1.0"><defs><clipPath id="4a6d76d029"><path d="M 2 124 L 158 124 L 158 200.234375 L 2 200.234375 Z M 2 124 " clip-rule="nonzero"/></clipPath><clipPath id="c31f77191c"><rect x="0" width="381" y="0" height="201"/></clipPath></defs><g transform="matrix(1, 0, 0, 1, 8, 188)"><g clip-path="url(#c31f77191c)"><g clip-path="url(#4a6d76d029)"><path fill="#00618a" d="M 2.484375 183.011719 L 14.886719 183.011719 L 14.886719 134.039062 L 34.082031 176.746094 C 36.347656 181.894531 39.449219 183.746094 45.53125 183.746094 C 51.609375 183.746094 54.589844 181.917969 56.859375 176.746094 L 76.058594 134.039062 L 76.058594 183.03125 L 88.460938 183.03125 L 88.460938 134.121094 C 88.460938 129.347656 86.550781 127.039062 82.617188 125.847656 C 73.195312 122.90625 66.875 125.453125 64.015625 131.8125 L 45.175781 173.964844 L 26.929688 131.796875 C 24.1875 125.433594 17.75 122.886719 8.332031 125.832031 C 4.394531 127.023438 2.484375 129.332031 2.484375 134.101562 Z M 98.765625 143.136719 L 111.164062 143.136719 L 111.164062 170.128906 C 111.046875 171.597656 111.632812 175.039062 118.425781 175.144531 C 121.894531 175.199219 145.175781 175.144531 145.394531 175.144531 L 145.394531 143.003906 L 157.816406 143.003906 C 157.875 143.003906 157.804688 186.828125 157.808594 187.015625 C 157.875 197.824219 144.402344 200.171875 138.191406 200.355469 L 99.039062 200.355469 L 99.039062 192.007812 L 138.261719 192.003906 C 146.242188 191.160156 145.300781 187.191406 145.300781 185.855469 L 145.300781 182.601562 L 118.945312 182.601562 C 106.683594 182.492188 98.875 177.132812 98.777344 170.972656 C 98.769531 170.421875 99.042969 143.402344 98.769531 143.136719 Z M 98.765625 143.136719 " fill-opacity="1" fill-rule="nonzero"/></g><path fill="#e48e00" d="M 167.378906 183.011719 L 203.03125 183.011719 C 207.203125 183.011719 211.257812 182.140625 214.480469 180.625 C 219.847656 178.160156 222.46875 174.820312 222.46875 170.445312 L 222.46875 161.382812 C 222.46875 157.800781 219.488281 154.460938 213.648438 152.234375 C 210.546875 151.039062 206.730469 150.40625 203.035156 150.40625 L 188.011719 150.40625 C 183.003906 150.40625 180.617188 148.894531 180.023438 145.554688 C 179.902344 145.15625 179.902344 144.820312 179.902344 144.441406 L 179.902344 138.796875 C 179.902344 138.476562 179.902344 138.15625 180.023438 137.761719 C 180.617188 135.214844 181.929688 134.5 186.339844 134.082031 C 186.699219 134.082031 187.175781 134 187.535156 134 L 222.949219 134 L 222.949219 125.734375 L 188.132812 125.734375 C 183.121094 125.734375 180.5 126.050781 178.113281 126.765625 C 170.710938 129.074219 167.492188 132.75 167.492188 139.113281 L 167.492188 146.351562 C 167.492188 151.917969 173.8125 156.691406 184.421875 157.804688 C 185.617188 157.882812 186.808594 157.960938 188 157.960938 L 200.878906 157.960938 C 201.355469 157.960938 201.832031 157.960938 202.1875 158.042969 C 206.121094 158.359375 207.796875 159.074219 208.984375 160.503906 C 209.722656 161.242188 209.941406 161.941406 209.941406 162.710938 L 209.941406 169.949219 C 209.941406 170.824219 209.347656 171.9375 208.152344 172.890625 C 207.082031 173.847656 205.292969 174.480469 202.90625 174.640625 C 202.429688 174.640625 202.070312 174.722656 201.597656 174.722656 L 167.375 174.722656 L 167.375 182.992188 Z M 299.824219 168.617188 C 299.824219 177.128906 306.144531 181.898438 318.902344 182.855469 C 320.09375 182.945312 321.285156 183 322.480469 183.011719 L 354.792969 183.011719 L 354.792969 174.742188 L 322.242188 174.742188 C 314.96875 174.742188 312.222656 172.914062 312.222656 168.539062 L 312.222656 125.75 L 299.824219 125.75 Z M 230.378906 169.050781 L 230.378906 139.5625 C 230.378906 132.074219 235.636719 127.527344 246.03125 126.09375 C 247.140625 125.9375 248.257812 125.855469 249.378906 125.855469 L 272.917969 125.855469 C 274.078125 125.855469 275.234375 125.9375 276.382812 126.09375 C 286.777344 127.527344 292.035156 132.070312 292.035156 139.5625 L 292.035156 169.050781 C 292.035156 175.125 289.800781 178.378906 284.65625 180.5 L 296.871094 191.53125 L 282.472656 191.53125 L 272.589844 182.605469 L 262.640625 183.238281 L 249.378906 183.238281 C 247.109375 183.238281 244.71875 182.917969 242.089844 182.199219 C 234.1875 180.046875 230.382812 175.902344 230.382812 169.050781 Z M 243.765625 168.3125 C 243.765625 168.710938 243.882812 169.109375 244.003906 169.589844 C 244.738281 173.015625 247.945312 174.929688 252.824219 174.929688 L 264.09375 174.929688 L 253.746094 165.582031 L 268.144531 165.582031 L 277.148438 173.734375 C 278.8125 172.847656 279.90625 171.492188 280.273438 169.75 C 280.394531 169.351562 280.394531 168.953125 280.394531 168.554688 L 280.394531 140.28125 C 280.394531 139.964844 280.394531 139.546875 280.273438 139.167969 C 279.539062 135.980469 276.328125 134.148438 271.550781 134.148438 L 252.859375 134.148438 C 247.34375 134.148438 243.78125 136.539062 243.78125 140.28125 L 243.78125 168.335938 Z M 243.765625 168.3125 " fill-opacity="1" fill-rule="nonzero"/><path fill="#00618a" d="M 365.695312 112.027344 C 358.074219 111.824219 352.25 112.53125 347.273438 114.628906 C 345.859375 115.226562 343.601562 115.242188 343.371094 117.015625 C 344.148438 117.832031 344.273438 119.046875 344.886719 120.050781 C 346.078125 121.976562 348.085938 124.554688 349.875 125.90625 C 351.828125 127.382812 353.84375 128.964844 355.945312 130.246094 C 359.675781 132.519531 363.839844 133.820312 367.433594 136.101562 C 369.550781 137.441406 371.652344 139.132812 373.71875 140.652344 C 374.738281 141.402344 375.425781 142.570312 376.75 143.039062 L 376.75 142.820312 C 376.050781 141.933594 375.875 140.710938 375.234375 139.785156 L 372.417969 136.96875 C 369.660156 133.289062 366.164062 130.097656 362.445312 127.425781 C 359.480469 125.296875 352.84375 122.417969 351.605469 118.964844 L 351.390625 118.75 C 353.492188 118.511719 355.953125 117.75 357.898438 117.230469 C 361.15625 116.359375 364.070312 116.582031 367.433594 115.714844 L 371.988281 114.414062 L 371.988281 113.546875 C 370.285156 111.796875 369.074219 109.488281 367.21875 107.90625 C 362.367188 103.769531 357.066406 99.640625 351.613281 96.195312 C 348.589844 94.28125 344.851562 93.042969 341.644531 91.421875 C 340.566406 90.878906 338.671875 90.59375 337.957031 89.6875 C 336.273438 87.539062 335.359375 84.8125 334.058594 82.332031 C 331.339844 77.089844 328.667969 71.367188 326.253906 65.851562 C 324.609375 62.089844 323.535156 58.382812 321.488281 55.007812 C 311.644531 38.820312 301.050781 29.046875 284.640625 19.445312 C 281.148438 17.40625 276.945312 16.59375 272.5 15.542969 L 265.347656 15.109375 C 263.890625 14.5 262.378906 12.71875 261.011719 11.851562 C 255.574219 8.414062 241.628906 0.945312 237.601562 10.75 C 235.0625 16.953125 241.402344 23.003906 243.671875 26.148438 C 245.261719 28.355469 247.304688 30.824219 248.4375 33.304688 C 249.1875 34.933594 249.316406 36.566406 249.957031 38.292969 C 251.53125 42.523438 252.902344 47.160156 254.941406 51.085938 C 255.972656 53.074219 257.105469 55.164062 258.410156 56.941406 C 259.210938 58.03125 260.578125 58.511719 260.792969 60.195312 C 259.457031 62.070312 259.378906 64.976562 258.625 67.351562 C 255.238281 78.039062 256.515625 91.320312 261.441406 99.230469 C 262.953125 101.660156 266.515625 106.867188 271.414062 104.871094 C 275.695312 103.121094 274.722656 97.71875 275.964844 92.945312 C 276.242188 91.859375 276.070312 91.066406 276.617188 90.339844 L 276.617188 90.558594 L 280.519531 98.363281 C 283.402344 103.015625 288.53125 107.878906 292.871094 111.164062 C 295.125 112.863281 296.917969 115.804688 299.808594 116.800781 L 299.808594 116.582031 L 299.59375 116.582031 C 299.027344 115.699219 298.144531 115.339844 297.421875 114.632812 C 295.726562 112.96875 293.839844 110.902344 292.4375 108.996094 C 288.484375 103.628906 284.996094 97.761719 281.816406 91.648438 C 280.300781 88.730469 278.976562 85.507812 277.699219 82.539062 C 277.207031 81.394531 277.214844 79.664062 276.183594 79.070312 C 274.78125 81.246094 272.714844 83.003906 271.632812 85.574219 C 269.898438 89.683594 269.671875 94.691406 269.03125 99.886719 C 268.652344 100.023438 268.820312 99.929688 268.597656 100.105469 C 265.578125 99.378906 264.515625 96.269531 263.394531 93.601562 C 260.558594 86.851562 260.03125 75.992188 262.527344 68.226562 C 263.171875 66.21875 266.09375 59.890625 264.914062 58.035156 C 264.347656 56.183594 262.484375 55.09375 261.445312 53.695312 C 260.15625 51.949219 258.867188 49.644531 257.976562 47.625 C 255.652344 42.367188 254.570312 36.464844 252.125 31.144531 C 250.957031 28.601562 248.980469 26.03125 247.355469 23.789062 C 245.558594 21.289062 243.546875 19.441406 242.15625 16.433594 C 241.660156 15.359375 240.984375 13.640625 241.722656 12.53125 C 241.792969 12.203125 241.945312 11.925781 242.183594 11.6875 C 242.417969 11.453125 242.699219 11.300781 243.023438 11.226562 C 244.28125 10.257812 247.78125 11.550781 249.089844 12.097656 C 252.566406 13.542969 255.46875 14.917969 258.414062 16.867188 C 259.828125 17.785156 261.257812 19.617188 262.964844 20.121094 L 264.914062 20.121094 C 267.964844 20.824219 271.382812 20.34375 274.230469 21.207031 C 279.269531 22.738281 283.785156 25.125 287.886719 27.710938 C 300.378906 35.605469 310.59375 46.839844 317.582031 60.257812 C 318.707031 62.417969 319.191406 64.476562 320.183594 66.765625 C 322.179688 71.363281 324.695312 76.128906 326.683594 80.640625 C 328.671875 85.148438 330.601562 89.6875 333.40625 93.4375 C 334.878906 95.402344 340.574219 96.464844 343.160156 97.554688 C 344.972656 98.320312 347.941406 99.121094 349.660156 100.15625 C 352.941406 102.136719 356.121094 104.496094 359.199219 106.667969 C 360.738281 107.75 365.46875 110.128906 365.703125 112.085938 Z M 365.695312 112.027344 " fill-opacity="1" fill-rule="nonzero"/><path fill="#00618a" d="M 268.820312 29.40625 C 267.230469 29.378906 266.105469 29.582031 264.917969 29.84375 L 264.917969 30.058594 L 265.132812 30.058594 C 265.890625 31.617188 267.230469 32.621094 268.167969 33.960938 L 270.335938 38.515625 L 270.554688 38.296875 C 271.894531 37.351562 272.511719 35.839844 272.5 33.527344 C 271.960938 32.960938 271.882812 32.25 271.417969 31.574219 C 270.796875 30.671875 269.578125 30.160156 268.816406 29.40625 Z M 268.820312 29.40625 " fill-opacity="1" fill-rule="evenodd"/><path fill="#e48e00" d="M 360.625 174.507812 C 360.625 179.96875 364.9375 183.648438 369.761719 183.648438 C 374.585938 183.648438 378.902344 179.96875 378.902344 174.507812 C 378.902344 169.046875 374.585938 165.363281 369.761719 165.363281 C 364.9375 165.363281 360.625 169.046875 360.625 174.507812 Z M 376.851562 174.507812 C 376.851562 178.652344 373.6875 181.746094 369.757812 181.746094 C 365.789062 181.746094 362.664062 178.652344 362.664062 174.507812 C 362.664062 170.363281 365.785156 167.265625 369.757812 167.265625 C 373.683594 167.265625 376.851562 170.363281 376.851562 174.507812 Z M 372.222656 179.726562 L 374.265625 179.726562 L 371.269531 175.144531 C 372.878906 174.972656 374.097656 174.191406 374.097656 172.289062 C 374.097656 170.167969 372.753906 169.292969 370.175781 169.292969 L 366.101562 169.292969 L 366.101562 179.726562 L 367.859375 179.726562 L 367.859375 175.214844 L 369.492188 175.214844 L 372.21875 179.726562 Z M 367.859375 173.75 L 367.859375 170.75 L 369.878906 170.75 C 370.925781 170.75 372.195312 170.945312 372.195312 172.167969 C 372.195312 173.628906 371.050781 173.753906 369.734375 173.753906 L 367.859375 173.753906 Z M 367.859375 173.75 " fill-opacity="1" fill-rule="evenodd"/></g></g></svg>